# xmcd
#
# Track frame offsets: 
#        150
#        9049
#        21769
#        35277
#        49159
#        60535
#        74097
#        85537
#        97659
#        116820
#        125717
#        141386
#        145045
#        159226
#        178731
#        192573
#        206656
#        219697
#        234243
#        248319
#        260964
#        276638
#        290849
#        304272
#        316819
#        330456
#        345095
#
# Disc length: 4765 seconds
#
# Revision: 0
# Processed by: cddbd v1.5.2PL0 Copyright (c) Steve Scherf et al.
# Submitted via: ExactAudioCopyFreeDBPlugin 1.0
#
DISCID=8d129b1b
DTITLE=Various Artist - VA - Really the Blues - Disc 17
DYEAR=1900
DGENRE=30s
TTITLE0=Charles Ives - From Symphony Number 1
TTITLE1=Count Basie - Swingin' the Blues
TTITLE2=Carter Family - Coalminer's Blues
TTITLE3=Tommy Ladnier - Weary Blues
TTITLE4=Rambling Rangers - Getting Tired
TTITLE5=Mezz Mezzrow - If You See Me Comin'
TTITLE6=Roy Newman - Everybody's Tryin' to Be My Baby
TTITLE7=Roy Rogers - Dust
TTITLE8=Louis Armstrong, Fats Waller and Jack Teagarden - Blues
TTITLE9=Monroe Brothers - Rollin' On
TTITLE10=Louis Armstrong - Nobody Knows the Trouble I've Seen
TTITLE11=Jelly Roll Morton - Naked Dance
TTITLE12=Jack Kelly and His South Memphis Jug Band - Cold Iron Bed
TTITLE13=Roland Hayes - Were You There When They Crucified Our Lord?
TTITLE14=Pete Johnson and Joe Turner - Baby Look at You
TTITLE15=Billie Holiday - Long Gone Blues
TTITLE16=Bob Zurke Orchestra - Nickel Nabber Blues
TTITLE17=Buddy Jones - Settle Down Blues
TTITLE18=Count Basie - Goin' to Chicago Blues
TTITLE19=Dixie Hummingbirds - I Looked Down the Line
TTITLE20=Jelly Roll Morton - Honky Tonk Blues
TTITLE21=Andy Kirk with Floyd Smith - Floyd's Guitar Blues
TTITLE22=Rouse Brothers - Orange Blossom Special
TTITLE23=Jimmy Yancey - Five O'clock Blues
TTITLE24=Tommy McLennan - Whiskey Headed Woman
TTITLE25=Frankie Newton - Blues My Baby Gave to Me
TTITLE26=Aunt Molly Jackson - Lonesome Jailhouse Blues
EXTD=
EXTT0=
EXTT1=
EXTT2=
EXTT3=
EXTT4=
EXTT5=
EXTT6=
EXTT7=
EXTT8=
EXTT9=
EXTT10=
EXTT11=
EXTT12=
EXTT13=
EXTT14=
EXTT15=
EXTT16=
EXTT17=
EXTT18=
EXTT19=
EXTT20=
EXTT21=
EXTT22=
EXTT23=
EXTT24=
EXTT25=
EXTT26=
PLAYORDER=
